<?xml version="1.0" encoding="UTF-8" standalone="no"?>
<!-- Created with Inkscape (http://www.inkscape.org/) -->

<svg
   xmlns:dc="http://purl.org/dc/elements/1.1/"
   xmlns:cc="http://creativecommons.org/ns#"
   xmlns:rdf="http://www.w3.org/1999/02/22-rdf-syntax-ns#"
   xmlns:svg="http://www.w3.org/2000/svg"
   xmlns="http://www.w3.org/2000/svg"
   xmlns:sodipodi="http://sodipodi.sourceforge.net/DTD/sodipodi-0.dtd"
   xmlns:inkscape="http://www.inkscape.org/namespaces/inkscape"
   width="32px"
   height="32px"
   viewBox="0 0 32 32"
   version="1.1"
   id="SVGRoot"
   inkscape:version="0.92.4 (5da689c313, 2019-01-14)"
   sodipodi:docname="dirt.svg">
  <defs
     id="defs3713" />
  <sodipodi:namedview
     id="base"
     pagecolor="#ffffff"
     bordercolor="#666666"
     borderopacity="1.0"
     inkscape:pageopacity="0.0"
     inkscape:pageshadow="2"
     inkscape:zoom="11.313709"
     inkscape:cx="2.492528"
     inkscape:cy="7.8676824"
     inkscape:document-units="px"
     inkscape:current-layer="layer1"
     showgrid="true"
     inkscape:window-width="1680"
     inkscape:window-height="964"
     inkscape:window-x="0"
     inkscape:window-y="31"
     inkscape:window-maximized="1"
     inkscape:grid-bbox="true"
     inkscape:snap-text-baseline="false">
    <inkscape:grid
       type="xygrid"
       id="grid3842" />
  </sodipodi:namedview>
  <metadata
     id="metadata3716">
    <rdf:RDF>
      <cc:Work
         rdf:about="">
        <dc:format>image/svg+xml</dc:format>
        <dc:type
           rdf:resource="http://purl.org/dc/dcmitype/StillImage" />
        <dc:title></dc:title>
      </cc:Work>
    </rdf:RDF>
  </metadata>
  <g
     inkscape:label="Layer 1"
     inkscape:groupmode="layer"
     id="layer1">
    <path
       style="fill:none;stroke:#c87137;stroke-width:1px;stroke-linecap:butt;stroke-linejoin:miter;stroke-opacity:1"
       d="M 6,29 C 4.3496252,27.575886 3.3830462,26.957154 2.2097087,25.045049 1.8976898,24.536574 1.7548823,23.939292 1.5909903,23.36567 1.5176955,23.109139 1.4447255,22.830619 1.5026019,22.570175 1.6845036,21.751617 1.9410554,20.942403 2.298097,20.18369 2.4151467,19.934959 3.5379682,19.04432 3.7123106,18.946253 5.141916,18.1421 5.9474431,17.808316 7.5130095,17.532039 7.920247,17.460174 8.33718,17.428891 8.7504464,17.443651 c 0.4164016,0.01487 0.8283616,0.0976 1.2374366,0.176777 0.505171,0.09777 1.020818,0.172884 1.502602,0.353553 0.90766,0.340372 2.028775,1.16427 2.740039,1.767767 1.000304,0.848742 1.55753,1.624792 2.65165,2.298097 0.359266,0.221087 0.757378,0.373661 1.149049,0.53033 0.346023,0.138409 0.68908,0.32497 1.06066,0.353553 0.803793,0.06183 1.76196,-0.250266 2.298097,-0.883883 0.391878,-0.463128 0.65192,-1.030412 0.883884,-1.59099 0.125948,-0.304375 0.143999,-0.644503 0.176776,-0.972272 0.08522,-0.8522 0.200558,-1.707142 0.176777,-2.563262 -0.0062,-0.224296 -0.164818,-0.418025 -0.265165,-0.618719 -0.23849,-0.476981 -0.642773,-0.94141 -0.972272,-1.325825 -0.108465,-0.126543 -0.235702,-0.235702 -0.353553,-0.353553 -0.02946,-0.02946 -0.05893,-0.05893 -0.08839,-0.08839 -0.02946,-0.02946 -0.05112,-0.06975 -0.08839,-0.08839 -0.06859,-0.0343 -0.35065,0.08694 -0.353553,0.08839 -0.271314,0.135657 -0.532979,0.289959 -0.795495,0.441942 -0.297354,0.172152 -0.60318,0.332186 -0.883884,0.53033 -1.068858,0.754488 -0.20272,0.270321 -1.06066,0.972272 -0.164434,0.134537 -0.370438,0.213648 -0.53033,0.353553 -0.07995,0.06995 -0.106824,0.18522 -0.176777,0.265165 -0.137188,0.156787 -0.323356,0.270652 -0.441942,0.441942 -0.15,0.216667 -0.235702,0.471405 -0.353553,0.707107 -0.343874,0.687748 -0.706051,1.462731 -1.414214,1.856155 -0.210181,0.116768 -1.209561,0.490843 -1.59099,0.441942 -1.768892,-0.226781 -2.65824,-0.24957 -3.977476,-1.149049 -0.7884033,-0.537548 -1.030142,-0.919826 -1.3258247,-1.856155 -0.053233,-0.168571 0,-0.353553 0,-0.53033 0,-0.176777 -0.044989,-0.359374 0,-0.53033 0.1044362,-0.396857 0.1575113,-0.853241 0.4419417,-1.149049 0.4871147,-0.506599 1.148265,-0.817172 1.767767,-1.149048 0.214161,-0.114729 0.46415,-0.176777 0.707107,-0.176777 0.35843,0 0.734824,0.02743 1.06066,0.176777 0.804673,0.368809 1.729076,1.49049 2.209709,2.12132 0.125497,0.164716 0.522483,1.055158 0.441941,1.237437 -1.154438,2.612676 -1.292963,2.898891 -3.270369,3.977476 -0.485963,0.265071 -0.996144,0.483669 -1.502601,0.707107 C 9.315526,22.43526 8.8262183,22.676044 8.3085047,22.83534 7.6902306,23.025578 6.4742538,22.883005 6.0104076,22.658563 5.5213809,22.421938 5.1400696,21.998375 4.7729708,21.597903 4.6160323,21.426698 3.949,20.427099 3.8006989,20.006913 3.6888955,19.690137 3.6047385,19.363363 3.5355339,19.034641 3.4865989,18.8022 3.4733771,18.563618 3.4471456,18.327534 c -0.00325,-0.02928 0,-0.117851 0,-0.08839 0,0.618718 0,1.237437 0,1.856155 0,0.265165 0,0.53033 0,0.795495 0,0.20624 0.010299,0.412737 0,0.618719 -0.046059,0.921171 -0.2596761,1.919561 0,2.828427 0.077725,0.272037 0.3559546,0.41528 0.53033,0.618718 0.1227743,0.143237 0.220155,0.308544 0.3535534,0.441942 0.4384554,0.438456 1.0569612,0.867981 1.5909903,1.149049 0.2227606,0.117242 0.470042,0.180499 0.7071068,0.265165 0.5879343,0.209976 1.1621019,0.467302 1.7677669,0.618718 0.3441861,0.08605 0.705881,0.08839 1.06066,0.08839 0.352666,0 1.926389,0.0757 2.474874,-0.353553 0.918193,-0.718586 1.703135,-1.637551 2.12132,-2.740039 0.137437,-0.362332 0.113069,-0.766798 0.176777,-1.149048 0.185242,-1.111452 0.163152,-1.774197 1.679379,-1.856156 0.950029,-0.05135 2.89241,0.608302 3.71231,1.060661 0.461849,0.254813 1.158604,1.129937 1.502602,1.502602 0.491131,0.532058 0.573058,0.427593 0.972272,1.325825 0.08461,0.190377 0.07109,0.411104 0.08839,0.618718 0.01223,0.146805 0.04047,0.300296 0,0.441942 -0.05942,0.20798 -0.386213,0.245466 -0.53033,0.353553 -0.06667,0.05 -0.11011,0.126777 -0.176777,0.176777 -0.22326,0.167445 -0.410431,0.08839 -0.707106,0.08839 -0.502982,0 -1.020214,0.02422 -1.502602,-0.176776 -0.857699,-0.357375 -1.367439,-0.821627 -1.502602,-1.767767 -0.170747,-1.195229 0.286995,-1.885639 0.618718,-3.005204 0.776529,-2.620784 -0.385447,1.011459 0.265165,-1.59099 0.112985,-0.451939 0.288902,-0.885834 0.441942,-1.325826 0.253339,-0.728348 0.359929,-1.067036 0.972272,-1.679378 0.770481,-0.770482 1.394884,-0.618719 2.386485,-0.618719 0.08839,0 0.178882,-0.01917 0.265165,0 0.729682,0.162152 0.311089,0.133248 0.883884,0.353554 0.260878,0.100337 0.525424,0.193146 0.795495,0.265165 0.173164,0.04618 0.353553,0.05893 0.53033,0.08839 0.176777,0.02946 0.351284,0.09617 0.53033,0.08839 0.503846,-0.02191 1.001051,-0.123982 1.502602,-0.176777 0.618103,-0.06506 1.236974,-0.122935 1.856155,-0.176777 0.280554,-0.0244 0.402502,0.114916 0.618719,-0.353553 0.285044,-0.617595 0.603606,-1.264511 0.618718,-1.944544 0.03475,-1.563611 -0.893764,-2.599171 -1.679378,-3.800699 -0.116271,-0.177827 -0.203324,-0.380104 -0.353556,-0.530335 -0.480058,-0.480058 -0.621146,-0.474304 -1.237437,-0.53033 -0.117367,-0.01067 -0.237991,-0.02311 -0.353553,0 -0.476477,0.0953 -0.993323,0.110732 -1.414214,0.353553 -0.725531,0.418576 -1.121808,1.414132 -1.502602,2.121321 -0.218647,0.406059 -1.078857,1.847356 -1.149048,1.944543 -0.200345,0.277401 -0.821547,0.450626 -1.06066,0.53033 -0.115245,0.03842 -0.232345,0.09647 -0.353554,0.08839 -0.500621,-0.03338 -1.141156,-0.172042 -1.59099,-0.441942 -0.580182,-0.348109 -1.397863,-0.865545 -1.767767,-1.502602 -0.377182,-0.649592 -0.740536,-1.318415 -0.972272,-2.032932 -0.127576,-0.393359 -0.08839,-0.823907 -0.08839,-1.237437 0,-0.266797 0.02368,-0.536664 0.08839,-0.795495 0.02576,-0.103058 0.101661,-0.1900493 0.176777,-0.2651649 0.104167,-0.1041667 0.221792,-0.1992843 0.353553,-0.265165 0.108654,-0.054327 0.232345,-0.080308 0.353554,-0.088388 0.790108,-0.052674 1.302835,-0.041916 2.032932,0.3535534 0.388596,0.2104895 0.717663,0.5168095 1.06066,0.7954955 0.22681,0.184283 0.523665,0.510334 0.618718,0.795495 0.09502,0.285044 0.293126,0.606862 0.176777,0.883883 -0.526421,1.253384 -1.26018,2.417077 -2.032932,3.535534 -0.35527,0.514206 -0.821822,0.956223 -1.325825,1.325825 -0.831223,0.609564 -1.698162,1.199379 -2.651651,1.59099 -0.721578,0.296363 -1.518184,0.426344 -2.298097,0.441942 C 11.386917,18.273037 9.889469,17.576049 8.6620581,16.471379 8.4736713,16.301831 8.3637022,16.061513 8.2201163,15.852661 8.03957,15.590048 7.8262125,15.345176 7.6897862,15.057165 7.5581067,14.779175 7.482177,14.47545 7.4246212,14.173282 7.2824008,13.426625 7.262142,12.742771 7.6897862,12.051962 7.8765257,11.750305 8.1794853,11.524735 8.4852814,11.344855 8.8970864,11.102617 10.564884,11.066231 10.69499,11.07969 c 0.3707,0.03835 0.719229,0.204177 1.06066,0.353553 0.134963,0.05905 0.311223,0.124064 0.353554,0.265165 0.383881,1.279604 0.303385,1.984433 -0.795496,2.916816 C 9.934312,15.785621 7.7605475,16.334085 6.0104076,15.764272 4.7967117,15.369115 4.1597987,14.564555 3.7123106,13.466175 3.5640018,13.102144 3.4635098,12.709868 3.4471456,12.317127 3.4163686,11.578479 3.6971583,11.089562 4.1542523,10.54936 4.2761118,10.405344 4.4497772,10.31477 4.5961941,10.195806 4.9211878,9.931749 5.2093952,9.615754 5.5684659,9.400311 6.0689597,9.100015 7.5342887,8.37191 8.3085047,8.339651 9.076812,8.3076382 9.28316,8.4456269 9.811107,8.7815928 c 0.09595,0.061061 0.577672,0.3361782 0.707106,0.5303302 0.01634,0.02451 0.02452,0.104731 0,0.08839 C 10.326749,9.27267 10.118865,9.147568 9.987883,8.9583714 9.595615,8.3917621 9.44892,6.3823718 9.457553,6.2183327 9.469033,6.0001957 9.868051,4.6830086 10.253048,4.3621774 10.629752,4.0482576 11.064735,3.8099682 11.490485,3.5666822 12.022443,3.2627064 12.745793,3.0888155 13.34664,3.2131289 c 0.477582,0.09881 0.905092,0.3720811 1.325826,0.6187184 0.06676,0.039136 1.464473,1.0035761 1.767767,1.3258252 0.315421,0.3351347 0.621066,0.6828604 0.883883,1.0606602 0.210819,0.3030516 0.409051,0.6235942 0.53033,0.9722718 0.117752,0.3385362 0.254531,0.7107652 0.176777,1.0606602 -0.08875,0.3993911 -0.7205,0.6470785 -1.06066,0.7071067 C 15.749401,9.173869 14.152237,8.960053 13.081475,8.7815928 12.685758,8.7156399 11.904529,8.597082 11.578874,8.1628743 11.539345,8.1101697 11.4439,8.0326824 11.490485,7.9860976 c 0.167964,-0.1679637 0.393372,-0.2784377 0.618719,-0.3535534 0.576221,-0.1920738 1.166151,-0.3583839 1.767767,-0.4419417 0.466922,-0.06485 0.944531,-0.040259 1.414213,0 1.659166,0.1422142 3.092657,0.5846759 4.596194,1.4142136 0.810041,0.4469189 1.532326,1.0492549 2.209709,1.6793789 0.596659,0.555032 1.071436,1.22836 1.59099,1.856155 0.187845,0.22698 0.388344,0.448949 0.53033,0.707107 0.184583,0.335605 0.314466,0.699479 0.441942,1.06066 0.05,0.141667 0.06714,0.29322 0.08839,0.441942 0.03773,0.264115 0.06938,0.529376 0.08839,0.795495 0.03062,0.428716 0.06329,1.142203 -0.883884,0.883883 -0.717734,-0.195745 -1.434791,-1.470492 -1.59099,-2.12132 -0.257729,-1.073869 -0.676287,-2.175693 -0.53033,-3.270369 0.250277,-1.8770759 0.945694,-2.9009658 2.032932,-4.0658639 0.344937,-0.369576 0.929544,-0.7226039 0.795495,-1.3258253 -0.03442,-0.1548837 -0.09806,-0.3041846 -0.176777,-0.4419417 -0.04134,-0.072354 -0.117851,-0.1178511 -0.176776,-0.1767767 -0.02946,-0.029463 -0.107023,-0.1256561 -0.08839,-0.088388 0.04751,0.095015 0.117851,0.1767767 0.176777,0.265165 0.184277,0.2764162 0.944944,1.3900894 1.06066,1.6793786 0.245924,0.6148092 0.264336,1.5334461 -0.08839,2.1213204 -0.223596,0.3726601 -1.082066,1.1801656 -1.237437,1.3258256 -0.393474,0.368882 -0.931483,0.761077 -1.414214,0.972271 -0.164189,0.07183 -0.351464,0.07721 -0.53033,0.08839 -0.294054,0.01838 -0.59184,0.03894 -0.883883,0 -0.15727,-0.02097 -0.309927,-0.08877 -0.441942,-0.176776 -1.195051,-0.796701 -1.631209,-1.261637 -2.209709,-2.5632623 -0.06101,-0.1372831 -0.05892,-0.2946279 -0.08839,-0.4419418 -0.114667,-0.5733352 -0.139129,-0.4534039 0,-1.1490485 0.01292,-0.064601 0.06755,-0.1142767 0.08839,-0.1767767 0.0093,-0.027951 0.02692,-0.1003543 0,-0.088388 -0.277193,0.1231972 -0.521357,0.3120869 -0.795495,0.4419417 -0.846207,0.4008352 -1.707622,0.7687641 -2.563262,1.1490485 -0.205043,0.09113 -0.436131,0.1347458 -0.618718,0.2651651 -0.237339,0.1695278 -0.419709,0.4054939 -0.618719,0.6187184 -0.08403,0.090032 -0.740102,0.7283006 -0.795495,1.0606606 -0.103826,0.622956 0.04859,0.914747 0.265165,1.502601 0.401701,1.090331 0.334538,0.800074 0.883884,1.944544 0.182544,0.380301 0.341676,0.771741 0.53033,1.149048 0.335884,0.671769 1.067907,1.661971 0.972272,2.474874 -0.03266,0.277594 -0.167023,0.533783 -0.265165,0.795495 -0.07879,0.210095 -0.147568,0.427622 -0.265166,0.618719 -0.191001,0.310376 -0.478875,0.605523 -0.795495,0.795495 -0.169477,0.101686 -0.353553,0.176776 -0.53033,0.265165 -0.05893,0.02946 -0.112175,0.07547 -0.176776,0.08839 -0.199285,0.03986 -0.284318,-0.06924 -0.441942,0.08839 -0.09554,0.09554 -0.116371,0.347017 -0.176777,0.441941 -0.301727,0.474144 -0.572146,0.670444 -0.795495,1.149049 -0.134192,0.287553 -0.217125,0.597384 -0.353553,0.883883 -0.108946,0.228785 -0.6415,1.133013 -0.795496,1.502602 -0.225824,0.541979 -0.293629,1.110847 -0.441941,1.679379 -0.07765,0.297639 -0.180661,0.588118 -0.265165,0.883883 -0.03337,0.116804 -0.08839,0.232075 -0.08839,0.353554 0,0.22097 0.324091,0.294627 0.441942,0.353553 1.096171,0.548085 -0.08675,0.02251 0.53033,0.176777 0.06391,0.01598 0.114277,0.06755 0.176777,0.08839 0.02795,0.0093 0.06204,-0.01318 0.08839,0 0.03727,0.01863 0.05395,0.111838 0.08839,0.08839 C 11.926341,27.19872 11.948013,27.084919 12,27"
       id="path4689"
       inkscape:connector-curvature="0" />
  </g>
</svg>
