<?xml version="1.0" encoding="UTF-8" standalone="no"?>
<!-- Created with Inkscape (http://www.inkscape.org/) -->

<svg
   xmlns:dc="http://purl.org/dc/elements/1.1/"
   xmlns:cc="http://creativecommons.org/ns#"
   xmlns:rdf="http://www.w3.org/1999/02/22-rdf-syntax-ns#"
   xmlns:svg="http://www.w3.org/2000/svg"
   xmlns="http://www.w3.org/2000/svg"
   xmlns:sodipodi="http://sodipodi.sourceforge.net/DTD/sodipodi-0.dtd"
   xmlns:inkscape="http://www.inkscape.org/namespaces/inkscape"
   width="32px"
   height="32px"
   viewBox="0 0 32 32"
   version="1.1"
   id="SVGRoot"
   inkscape:version="0.92.4 (5da689c313, 2019-01-14)"
   sodipodi:docname="grass.svg">
  <defs
     id="defs3785" />
  <sodipodi:namedview
     id="base"
     pagecolor="#000000"
     bordercolor="#666666"
     borderopacity="1.0"
     inkscape:pageopacity="0"
     inkscape:pageshadow="2"
     inkscape:zoom="16"
     inkscape:cx="17.449247"
     inkscape:cy="16.672596"
     inkscape:document-units="px"
     inkscape:current-layer="layer1"
     showgrid="true"
     inkscape:window-width="1680"
     inkscape:window-height="964"
     inkscape:window-x="0"
     inkscape:window-y="31"
     inkscape:window-maximized="1"
     inkscape:grid-bbox="true"
     inkscape:snap-grids="false">
    <inkscape:grid
       type="xygrid"
       id="grid3867" />
  </sodipodi:namedview>
  <metadata
     id="metadata3788">
    <rdf:RDF>
      <cc:Work
         rdf:about="">
        <dc:format>image/svg+xml</dc:format>
        <dc:type
           rdf:resource="http://purl.org/dc/dcmitype/StillImage" />
        <dc:title></dc:title>
      </cc:Work>
    </rdf:RDF>
  </metadata>
  <g
     inkscape:label="Layer 1"
     inkscape:groupmode="layer"
     id="layer1">
    <text
       xml:space="preserve"
       style="font-style:normal;font-weight:normal;font-size:26.66666603px;line-height:1.25;font-family:sans-serif;letter-spacing:0px;word-spacing:0px;fill:#ffff00;fill-opacity:1;stroke:none"
       x="5.375"
       y="28.75"
       id="text3819"><tspan
         sodipodi:role="line"
         id="tspan3817"
         x="5.375"
         y="52.34375" /></text>
    <path
       style="fill:none;stroke:#008a00;stroke-width:1px;stroke-linecap:butt;stroke-linejoin:miter;stroke-opacity:1"
       d="M 3,13 C 2.9583333,12.375 2.9097457,11.750423 2.875,11.125 2.8472674,10.625813 2.9021367,10.114317 3,9.625 3.0584991,9.3325046 3.0965891,9.0340966 3.1875,8.75 3.2642212,8.5102462 3.4065098,8.2962256 3.5,8.0625 3.6150233,7.7749417 3.7026601,7.4770779 3.8125,7.1875 4.009082,6.6692384 4.32718,5.851512 4.625,5.375 4.766402,5.1487567 4.941811,4.9439648 5.125,4.75 5.4688266,4.3859483 5.8750018,4.133927 6.25,3.8125 6.2947396,3.7741518 6.3333333,3.7291667 6.375,3.6875 6.3958333,3.6666667 6.4601339,3.6061384 6.4375,3.625 6.2899448,3.7479627 6.1458333,3.875 6,4"
       id="path852"
       inkscape:connector-curvature="0" />
    <path
       style="fill:none;stroke:#008a00;stroke-width:1px;stroke-linecap:butt;stroke-linejoin:miter;stroke-opacity:1"
       d="M 8,12 C 7.958333,11.375 7.909746,10.750423 7.875,10.125 7.847267,9.6258134 7.902137,9.1143174 8,8.6250004 8.0585,8.3325044 8.09659,8.0340964 8.1875,7.75 8.26422,7.5102462 8.40651,7.2962256 8.5,7.0625 8.615023,6.7749417 8.70266,6.4770779 8.8125,6.1875 9.009082,5.6692384 9.32718,4.851512 9.625,4.375 9.766402,4.1487567 9.941811,3.9439648 10.125,3.75 10.468827,3.3859483 10.875002,3.133927 11.25,2.8125 11.29474,2.774152 11.33333,2.729167 11.375,2.6875 11.39583,2.666667 11.46013,2.606138 11.4375,2.625 11.289945,2.7479627 11.145833,2.875 11,3"
       id="path852-3"
       inkscape:connector-curvature="0" />
    <path
       style="fill:none;stroke:#008a00;stroke-width:1px;stroke-linecap:butt;stroke-linejoin:miter;stroke-opacity:1"
       d="m 11,15 c -0.04167,-0.625 -0.09025,-1.249577 -0.125,-1.875 -0.02773,-0.499187 0.02714,-1.010683 0.125,-1.5 0.0585,-0.292496 0.09659,-0.590904 0.1875,-0.875 0.07672,-0.239754 0.21901,-0.453774 0.3125,-0.6875 0.115023,-0.2875583 0.20266,-0.5854221 0.3125,-0.875 C 12.009082,8.6692384 12.32718,7.851512 12.625,7.375 12.766402,7.1487567 12.941811,6.9439648 13.125,6.75 13.468827,6.3859483 13.875002,6.133927 14.25,5.8125 14.29474,5.774152 14.33333,5.729167 14.375,5.6875 14.39583,5.666667 14.46013,5.606138 14.4375,5.625 14.289945,5.7479627 14.145833,5.875 14,6"
       id="path852-6"
       inkscape:connector-curvature="0" />
    <path
       style="fill:none;stroke:#008a00;stroke-width:1px;stroke-linecap:butt;stroke-linejoin:miter;stroke-opacity:1"
       d="m 15.3125,11 c -0.04167,-0.625 -0.09025,-1.249577 -0.125,-1.875 -0.02773,-0.499187 0.02714,-1.010683 0.125,-1.4999996 0.0585,-0.292496 0.09659,-0.590904 0.1875,-0.875 0.07672,-0.239754 0.21901,-0.453775 0.3125,-0.6875 C 15.927523,5.7749417 16.01516,5.4770779 16.125,5.1875 16.321582,4.6692384 16.63968,3.851512 16.9375,3.375 c 0.141402,-0.2262433 0.316811,-0.4310352 0.5,-0.625 0.343827,-0.3640517 0.750002,-0.616073 1.125,-0.9375 0.04474,-0.038348 0.08333,-0.083333 0.125,-0.125 C 18.70833,1.666667 18.77263,1.606138 18.75,1.625 18.602445,1.7479627 18.458333,1.875 18.3125,2"
       id="path852-7"
       inkscape:connector-curvature="0" />
    <path
       style="fill:none;stroke:#008a00;stroke-width:1px;stroke-linecap:butt;stroke-linejoin:miter;stroke-opacity:1"
       d="m 18,16 c -0.04167,-0.625 -0.09025,-1.249577 -0.125,-1.875 -0.02773,-0.499187 0.02714,-1.010683 0.125,-1.5 0.0585,-0.292496 0.09659,-0.590904 0.1875,-0.875 0.07672,-0.239754 0.21901,-0.453775 0.3125,-0.6875 0.115023,-0.287559 0.20266,-0.585422 0.3125,-0.875 0.196582,-0.518262 0.51468,-1.3359884 0.8125,-1.8125004 0.141402,-0.2262433 0.316811,-0.4310352 0.5,-0.625 0.343827,-0.3640517 0.750002,-0.616073 1.125,-0.9375 0.04474,-0.038348 0.08333,-0.083333 0.125,-0.125 0.02083,-0.020833 0.08513,-0.081362 0.0625,-0.0625 -0.147555,0.1229627 -0.291667,0.25 -0.4375,0.375"
       id="path852-5"
       inkscape:connector-curvature="0" />
    <path
       style="fill:none;stroke:#008a00;stroke-width:1px;stroke-linecap:butt;stroke-linejoin:miter;stroke-opacity:1"
       d="m 13.1875,21.25 c -0.04167,-0.625 -0.09025,-1.249577 -0.125,-1.875 -0.02773,-0.499187 0.02714,-1.010683 0.125,-1.5 0.0585,-0.292496 0.09659,-0.590904 0.1875,-0.875 0.07672,-0.239754 0.21901,-0.453775 0.3125,-0.6875 0.115023,-0.287559 0.20266,-0.585423 0.3125,-0.875 0.196582,-0.518262 0.51468,-1.335988 0.8125,-1.8125 0.141402,-0.226244 0.316811,-0.431036 0.5,-0.625 0.343827,-0.364052 0.750002,-0.616073 1.125,-0.9375 0.04474,-0.03835 0.08333,-0.08333 0.125,-0.125 0.02083,-0.02083 0.08513,-0.08136 0.0625,-0.0625 -0.147555,0.122963 -0.291667,0.25 -0.4375,0.375"
       id="path852-35"
       inkscape:connector-curvature="0" />
    <path
       style="fill:none;stroke:#008a00;stroke-width:1px;stroke-linecap:butt;stroke-linejoin:miter;stroke-opacity:1"
       d="M 6,22 C 5.9583333,21.375 5.9097457,20.750423 5.875,20.125 5.8472674,19.625813 5.9021367,19.114317 6,18.625 6.0584991,18.332504 6.0965891,18.034096 6.1875,17.75 6.2642212,17.510246 6.4065098,17.296225 6.5,17.0625 6.6150233,16.774941 6.7026601,16.477077 6.8125,16.1875 7.009082,15.669238 7.32718,14.851512 7.625,14.375 7.766402,14.148756 7.941811,13.943964 8.125,13.75 8.468827,13.385948 8.875002,13.133927 9.25,12.8125 9.29474,12.77415 9.33333,12.72917 9.375,12.6875 9.39583,12.66667 9.46013,12.60614 9.4375,12.625 9.289945,12.747962 9.145833,12.875 9,13"
       id="path852-62"
       inkscape:connector-curvature="0" />
    <path
       style="fill:none;stroke:#008a00;stroke-width:1px;stroke-linecap:butt;stroke-linejoin:miter;stroke-opacity:1"
       d="M 9,26 C 8.958333,25.375 8.909746,24.750423 8.875,24.125 8.847267,23.625813 8.902137,23.114317 9,22.625 9.0585,22.332504 9.09659,22.034096 9.1875,21.75 9.26422,21.510246 9.40651,21.296225 9.5,21.0625 c 0.115023,-0.287559 0.20266,-0.585423 0.3125,-0.875 0.196582,-0.518262 0.51468,-1.335988 0.8125,-1.8125 0.141402,-0.226244 0.316811,-0.431036 0.5,-0.625 0.343827,-0.364052 0.750002,-0.616073 1.125,-0.9375 0.04474,-0.03835 0.08333,-0.08333 0.125,-0.125 0.02083,-0.02083 0.08513,-0.08136 0.0625,-0.0625 C 12.289945,16.747962 12.145833,16.875 12,17"
       id="path852-9"
       inkscape:connector-curvature="0" />
    <path
       style="fill:none;stroke:#008a00;stroke-width:1px;stroke-linecap:butt;stroke-linejoin:miter;stroke-opacity:1"
       d="m 1.8475225,23.546581 c -0.041667,-0.625 -0.090254,-1.249577 -0.125,-1.875 -0.027733,-0.499187 0.027137,-1.010683 0.125,-1.5 0.058499,-0.292495 0.096589,-0.590903 0.1875,-0.875 0.076721,-0.239754 0.2190098,-0.453774 0.3125,-0.6875 0.1150233,-0.287558 0.2026601,-0.585422 0.3125,-0.875 0.196582,-0.518262 0.51468,-1.335988 0.8125,-1.8125 0.141402,-0.226243 0.316811,-0.431035 0.5,-0.625 0.3438266,-0.364052 0.7500018,-0.616073 1.125,-0.9375 0.04474,-0.03835 0.083333,-0.08333 0.125,-0.125 0.020833,-0.02083 0.085134,-0.08136 0.0625,-0.0625 -0.1475552,0.122963 -0.2916667,0.25 -0.4375,0.375"
       id="path852-1"
       inkscape:connector-curvature="0" />
    <path
       style="fill:none;stroke:#008a00;stroke-width:1px;stroke-linecap:butt;stroke-linejoin:miter;stroke-opacity:1"
       d="m 1.4100225,31.046581 c -0.041667,-0.625 -0.090254,-1.249577 -0.125,-1.875 -0.027733,-0.499187 0.027137,-1.010683 0.125,-1.5 0.058499,-0.292495 0.096589,-0.590903 0.1875,-0.875 0.076721,-0.239754 0.2190098,-0.453774 0.3125,-0.6875 0.1150233,-0.287558 0.2026601,-0.585422 0.3125,-0.875 0.196582,-0.518262 0.51468,-1.335988 0.8125,-1.8125 0.141402,-0.226243 0.316811,-0.431035 0.5,-0.625 0.3438266,-0.364052 0.7500018,-0.616073 1.125,-0.9375 0.04474,-0.03835 0.083333,-0.08333 0.125,-0.125 0.020833,-0.02083 0.085134,-0.08136 0.0625,-0.0625 -0.1475552,0.122963 -0.2916667,0.25 -0.4375,0.375"
       id="path852-2"
       inkscape:connector-curvature="0" />
    <path
       style="fill:none;stroke:#008a00;stroke-width:1px;stroke-linecap:butt;stroke-linejoin:miter;stroke-opacity:1"
       d="m 4.5350225,30.796581 c -0.041667,-0.625 -0.090254,-1.249577 -0.125,-1.875 -0.027733,-0.499187 0.027137,-1.010683 0.125,-1.5 0.058499,-0.292495 0.096589,-0.590903 0.1875,-0.875 0.076721,-0.239754 0.2190098,-0.453774 0.3125,-0.6875 0.1150233,-0.287558 0.2026601,-0.585422 0.3125,-0.875 0.196582,-0.518262 0.51468,-1.335988 0.8125,-1.8125 0.141402,-0.226243 0.316811,-0.431035 0.5,-0.625 0.3438266,-0.364052 0.7500018,-0.616073 1.125,-0.9375 0.04474,-0.03835 0.083333,-0.08333 0.125,-0.125 0.020833,-0.02083 0.085134,-0.08136 0.0625,-0.0625 -0.1475552,0.122963 -0.2916667,0.25 -0.4375,0.375"
       id="path852-70"
       inkscape:connector-curvature="0" />
    <path
       style="fill:none;stroke:#008a00;stroke-width:1px;stroke-linecap:butt;stroke-linejoin:miter;stroke-opacity:1"
       d="m 13.535023,30.484081 c -0.04167,-0.625 -0.09025,-1.249577 -0.125,-1.875 -0.02773,-0.499187 0.02714,-1.010683 0.125,-1.5 0.0585,-0.292495 0.09659,-0.590903 0.1875,-0.875 0.07672,-0.239754 0.219009,-0.453774 0.3125,-0.6875 0.115023,-0.287558 0.20266,-0.585422 0.3125,-0.875 0.196582,-0.518262 0.51468,-1.335988 0.8125,-1.8125 0.141402,-0.226243 0.316811,-0.431035 0.5,-0.625 0.343826,-0.364052 0.750001,-0.616073 1.124999,-0.9375 0.04474,-0.03835 0.08333,-0.08333 0.125,-0.125 0.02083,-0.02083 0.08513,-0.08136 0.0625,-0.0625 -0.147555,0.122963 -0.291666,0.25 -0.4375,0.375"
       id="path852-93"
       inkscape:connector-curvature="0" />
    <path
       style="fill:none;stroke:#008a00;stroke-width:1px;stroke-linecap:butt;stroke-linejoin:miter;stroke-opacity:1"
       d="M 10,32 C 9.95833,31.375 9.90975,30.750423 9.875,30.125 9.84727,29.625813 9.90214,29.114317 10,28.625 c 0.0585,-0.292495 0.09659,-0.590903 0.1875,-0.875 0.07672,-0.239754 0.21901,-0.453774 0.3125,-0.6875 0.115024,-0.287558 0.202661,-0.585422 0.3125,-0.875 0.196582,-0.518262 0.51468,-1.335988 0.8125,-1.8125 0.141402,-0.226243 0.316811,-0.431035 0.5,-0.625 0.343827,-0.364052 0.750002,-0.616073 1.125,-0.9375 0.04474,-0.03835 0.08333,-0.08333 0.125,-0.125 0.02083,-0.02083 0.08513,-0.08136 0.0625,-0.0625 C 13.289945,22.747963 13.145834,22.875 13,23"
       id="path852-60"
       inkscape:connector-curvature="0" />
    <path
       style="fill:none;stroke:#008a00;stroke-width:1px;stroke-linecap:butt;stroke-linejoin:miter;stroke-opacity:1"
       d="m 19.660022,20.921581 c -0.04167,-0.625 -0.09025,-1.249577 -0.125,-1.875 -0.02773,-0.499187 0.02714,-1.010683 0.125,-1.5 0.0585,-0.292495 0.09659,-0.590903 0.1875,-0.875 0.07672,-0.239754 0.21901,-0.453774 0.3125,-0.6875 0.115024,-0.287558 0.202661,-0.585422 0.3125,-0.875 0.196582,-0.518262 0.51468,-1.335988 0.8125,-1.8125 0.141402,-0.226243 0.316811,-0.431035 0.5,-0.625 0.343827,-0.364052 0.750002,-0.616073 1.125,-0.9375 0.04474,-0.03835 0.08333,-0.08333 0.125,-0.125 0.02083,-0.02083 0.08513,-0.08136 0.0625,-0.0625 -0.147555,0.122963 -0.291666,0.25 -0.4375,0.375"
       id="path852-626"
       inkscape:connector-curvature="0" />
    <path
       style="fill:none;stroke:#008a00;stroke-width:1px;stroke-linecap:butt;stroke-linejoin:miter;stroke-opacity:1"
       d="m 18.972522,30.609081 c -0.04167,-0.625 -0.09025,-1.249577 -0.125,-1.875 -0.02773,-0.499187 0.02714,-1.010683 0.125,-1.5 0.0585,-0.292495 0.09659,-0.590903 0.1875,-0.875 0.07672,-0.239754 0.21901,-0.453774 0.3125,-0.6875 0.115024,-0.287558 0.202661,-0.585422 0.3125,-0.875 0.196582,-0.518262 0.51468,-1.335988 0.8125,-1.8125 0.141402,-0.226243 0.316811,-0.431035 0.5,-0.625 0.343827,-0.364052 0.750002,-0.616073 1.125,-0.9375 0.04474,-0.03835 0.08333,-0.08333 0.125,-0.125 0.02083,-0.02083 0.08513,-0.08136 0.0625,-0.0625 -0.147555,0.122963 -0.291666,0.25 -0.4375,0.375"
       id="path852-18"
       inkscape:connector-curvature="0" />
    <path
       style="fill:none;stroke:#008a00;stroke-width:1px;stroke-linecap:butt;stroke-linejoin:miter;stroke-opacity:1"
       d="m 23.347522,29.109081 c -0.04167,-0.625 -0.09025,-1.249577 -0.125,-1.875 -0.02773,-0.499187 0.02714,-1.010683 0.125,-1.5 0.0585,-0.292495 0.09659,-0.590903 0.1875,-0.875 0.07672,-0.239754 0.21901,-0.453774 0.3125,-0.6875 0.115024,-0.287558 0.202661,-0.585422 0.3125,-0.875 0.196582,-0.518262 0.51468,-1.335988 0.8125,-1.8125 0.141402,-0.226243 0.316811,-0.431035 0.5,-0.625 0.343827,-0.364052 0.750002,-0.616073 1.125,-0.9375 0.04474,-0.03835 0.08333,-0.08333 0.125,-0.125 0.02083,-0.02083 0.08513,-0.08136 0.0625,-0.0625 -0.147555,0.122963 -0.291666,0.25 -0.4375,0.375"
       id="path852-79"
       inkscape:connector-curvature="0" />
    <path
       style="fill:none;stroke:#008a00;stroke-width:1px;stroke-linecap:butt;stroke-linejoin:miter;stroke-opacity:1"
       d="m 26.910022,31.296581 c -0.04167,-0.625 -0.09025,-1.249577 -0.125,-1.875 -0.02773,-0.499187 0.02714,-1.010683 0.125,-1.5 0.0585,-0.292495 0.09659,-0.590903 0.1875,-0.875 0.07672,-0.239754 0.21901,-0.453774 0.3125,-0.6875 0.115024,-0.287558 0.202661,-0.585422 0.3125,-0.875 0.196582,-0.518262 0.51468,-1.335988 0.8125,-1.8125 0.141402,-0.226243 0.316811,-0.431035 0.5,-0.625 0.343827,-0.364052 0.750002,-0.616073 1.125,-0.9375 0.04474,-0.03835 0.08333,-0.08333 0.125,-0.125 0.02083,-0.02083 0.08513,-0.08136 0.0625,-0.0625 -0.147555,0.122963 -0.291666,0.25 -0.4375,0.375"
       id="path852-20"
       inkscape:connector-curvature="0" />
    <path
       style="fill:none;stroke:#008a00;stroke-width:1px;stroke-linecap:butt;stroke-linejoin:miter;stroke-opacity:1"
       d="m 23.722522,19.171581 c -0.04167,-0.625 -0.09025,-1.249577 -0.125,-1.875 -0.02773,-0.499187 0.02714,-1.010683 0.125,-1.5 0.0585,-0.292495 0.09659,-0.590903 0.1875,-0.875 0.07672,-0.239754 0.21901,-0.453774 0.3125,-0.6875 0.115024,-0.287558 0.202661,-0.585422 0.3125,-0.875 0.196582,-0.518262 0.51468,-1.335988 0.8125,-1.8125 0.141402,-0.226243 0.316811,-0.431035 0.5,-0.625 0.343827,-0.364052 0.750002,-0.616073 1.125,-0.9375 0.04474,-0.03835 0.08333,-0.08333 0.125,-0.125 0.02083,-0.02083 0.08513,-0.08136 0.0625,-0.0625 -0.147555,0.122963 -0.291666,0.25 -0.4375,0.375"
       id="path852-23"
       inkscape:connector-curvature="0" />
    <path
       style="fill:none;stroke:#008a00;stroke-width:1px;stroke-linecap:butt;stroke-linejoin:miter;stroke-opacity:1"
       d="m 27.785022,17.734081 c -0.04167,-0.625 -0.09025,-1.249577 -0.125,-1.875 -0.02773,-0.499187 0.02714,-1.010683 0.125,-1.5 0.0585,-0.292495 0.09659,-0.590903 0.1875,-0.875 0.07672,-0.239754 0.21901,-0.453774 0.3125,-0.6875 0.115024,-0.287558 0.202661,-0.585422 0.3125,-0.875 0.196582,-0.518262 0.51468,-1.335988 0.8125,-1.8125 0.141402,-0.226243 0.316811,-0.431035 0.5,-0.625 0.343827,-0.3640517 0.750002,-0.616073 1.125,-0.9374999 0.04474,-0.038348 0.08333,-0.083333 0.125,-0.125 0.02083,-0.020833 0.08513,-0.081362 0.0625,-0.0625 -0.147555,0.1229627 -0.291666,0.25 -0.4375,0.375"
       id="path852-75"
       inkscape:connector-curvature="0" />
    <path
       style="fill:none;stroke:#008a00;stroke-width:1px;stroke-linecap:butt;stroke-linejoin:miter;stroke-opacity:1"
       d="m 23.910022,10.359081 c -0.04167,-0.625 -0.09025,-1.249577 -0.125,-1.875 -0.02773,-0.499187 0.02714,-1.010683 0.125,-1.5 0.0585,-0.292495 0.09659,-0.590903 0.1875,-0.875 0.07672,-0.239754 0.21901,-0.453774 0.3125,-0.6875 0.115024,-0.287558 0.202661,-0.585422 0.3125,-0.875 0.196582,-0.518262 0.51468,-1.335988 0.8125,-1.8125 0.141402,-0.226243 0.316811,-0.4310352 0.5,-0.625 0.343827,-0.3640517 0.750002,-0.616073 1.125,-0.9374999 0.04474,-0.038348 0.08333,-0.083333 0.125,-0.125 0.02083,-0.020833 0.08513,-0.081362 0.0625,-0.0625 -0.147555,0.1229627 -0.291666,0.25 -0.4375,0.375"
       id="path852-92"
       inkscape:connector-curvature="0" />
    <path
       style="fill:none;stroke:#008a00;stroke-width:1px;stroke-linecap:butt;stroke-linejoin:miter;stroke-opacity:1"
       d="m 15.535022,31.484081 c -0.04167,-0.625 -0.09025,-1.249577 -0.125,-1.875 -0.02773,-0.499187 0.02714,-1.010683 0.125,-1.5 0.0585,-0.292495 0.09659,-0.590903 0.1875,-0.875 0.07672,-0.239754 0.21901,-0.453774 0.3125,-0.6875 0.115024,-0.287558 0.202661,-0.585422 0.3125,-0.875 0.196582,-0.518262 0.51468,-1.335988 0.8125,-1.8125 0.141402,-0.226243 0.316811,-0.431035 0.5,-0.625 0.343827,-0.364052 0.750002,-0.616073 1.125,-0.9375 0.04474,-0.03835 0.08333,-0.08333 0.125,-0.125 0.02083,-0.02083 0.08513,-0.08136 0.0625,-0.0625 -0.147555,0.122963 -0.291666,0.25 -0.4375,0.375"
       id="path852-28"
       inkscape:connector-curvature="0" />
  </g>
  <g
     inkscape:groupmode="layer"
     id="layer2"
     inkscape:label="Layer 2" />
</svg>
