<?xml version="1.0" encoding="UTF-8" standalone="no"?>
<!-- Created with Inkscape (http://www.inkscape.org/) -->

<svg
   xmlns:dc="http://purl.org/dc/elements/1.1/"
   xmlns:cc="http://creativecommons.org/ns#"
   xmlns:rdf="http://www.w3.org/1999/02/22-rdf-syntax-ns#"
   xmlns:svg="http://www.w3.org/2000/svg"
   xmlns="http://www.w3.org/2000/svg"
   xmlns:sodipodi="http://sodipodi.sourceforge.net/DTD/sodipodi-0.dtd"
   xmlns:inkscape="http://www.inkscape.org/namespaces/inkscape"
   width="32px"
   height="32px"
   viewBox="0 0 32 32"
   version="1.1"
   id="SVGRoot"
   inkscape:version="0.92.4 (5da689c313, 2019-01-14)"
   sodipodi:docname="water.svg">
  <defs
     id="defs3785" />
  <sodipodi:namedview
     id="base"
     pagecolor="#000000"
     bordercolor="#666666"
     borderopacity="1.0"
     inkscape:pageopacity="0"
     inkscape:pageshadow="2"
     inkscape:zoom="16"
     inkscape:cx="17.449247"
     inkscape:cy="16.672596"
     inkscape:document-units="px"
     inkscape:current-layer="layer2"
     showgrid="true"
     inkscape:window-width="1680"
     inkscape:window-height="964"
     inkscape:window-x="0"
     inkscape:window-y="31"
     inkscape:window-maximized="1"
     inkscape:grid-bbox="true">
    <inkscape:grid
       type="xygrid"
       id="grid3867" />
  </sodipodi:namedview>
  <metadata
     id="metadata3788">
    <rdf:RDF>
      <cc:Work
         rdf:about="">
        <dc:format>image/svg+xml</dc:format>
        <dc:type
           rdf:resource="http://purl.org/dc/dcmitype/StillImage" />
        <dc:title></dc:title>
      </cc:Work>
    </rdf:RDF>
  </metadata>
  <g
     inkscape:label="Layer 1"
     inkscape:groupmode="layer"
     id="layer1"
     sodipodi:insensitive="true">
    <text
       xml:space="preserve"
       style="font-style:normal;font-weight:normal;font-size:26.66666603px;line-height:1.25;font-family:sans-serif;letter-spacing:0px;word-spacing:0px;fill:#ffff00;fill-opacity:1;stroke:none"
       x="5.375"
       y="28.75"
       id="text3819"><tspan
         sodipodi:role="line"
         id="tspan3817"
         x="5.375"
         y="52.34375" /></text>
    <rect
       style="fill:#0069ff;fill-opacity:1;stroke:none;stroke-width:0.30000001;stroke-miterlimit:4;stroke-dasharray:none"
       id="rect851"
       width="32"
       height="32"
       x="0"
       y="0" />
  </g>
  <g
     inkscape:groupmode="layer"
     id="layer2"
     inkscape:label="Layer 2">
    <path
       style="fill:none;stroke:#0000ff;stroke-width:1px;stroke-linecap:butt;stroke-linejoin:miter;stroke-opacity:1"
       d="M 1.6875,4 C 1.625,4.0625 1.5242821,4.102512 1.5,4.1875 1.476402,4.27009 1.537817,4.355225 1.5625,4.4375 1.656815,4.751882 1.7329634,4.945636 1.875,5.25 1.9538,5.418857 2.0478924,5.580363 2.125,5.75 2.152262,5.80998 2.158037,5.878574 2.1875,5.9375 2.221093,6.00469 2.272689,6.061302 2.3125,6.125 2.5509676,6.506548 2.443512,6.392431 2.75,6.75 2.788348,6.79474 2.833333,6.83333 2.875,6.875 2.916667,6.91667 2.949472,6.96968 3,7 3.056492,7.03389 3.1285744,7.03304 3.1875,7.0625 3.5796077,7.258554 3.150184,7.12988 3.625,7.3125 3.9096858,7.421995 4.4416343,7.591961 4.75,7.625 5.1441255,7.66723 5.5422018,7.65822 5.9375,7.6875 6.1050048,7.69991 6.2696705,7.74329 6.4375,7.75 7.3455877,7.78632 7.4062842,7.78947 8.1875,7.625 8.5466767,7.54938 8.801808,7.486526 9.125,7.3125 9.257274,7.24127 9.375,7.145833 9.5,7.0625 9.5625,7.02083 9.634385,6.99062 9.6875,6.9375 c 0.25093,-0.25093 0.201903,-0.269204 0.375,-0.5 0.08004,-0.106719 0.176004,-0.201506 0.25,-0.3125 0.05168,-0.07752 0.08333,-0.166667 0.125,-0.25 C 10.45833,5.83333 10.47205,5.78727 10.5,5.75 10.53535,5.70286 10.58965,5.67214 10.625,5.625 10.65295,5.58773 10.65955,5.53727 10.6875,5.5 10.74,5.43 10.8225,5.3825 10.875,5.3125 10.93789,5.22865 11.020954,5.103866 11.0625,5 11.08697,4.93883 11.10053,4.873669 11.125,4.8125 c 0.0173,-0.04325 0.04777,-0.08081 0.0625,-0.125 0.0066,-0.01976 -0.01473,-0.04777 0,-0.0625 0.01473,-0.01473 0.04777,0.01473 0.0625,0 0.01925,-0.01925 -0.0342,-0.193395 0,-0.125 0.171875,0.34375 -0.09375,0.0625 0.1875,0.5625 0.296931,0.527877 0.425866,0.613366 0.8125,1 0.0625,0.0625 0.11848,0.132284 0.1875,0.1875 0.244022,0.195217 0.5,0.375 0.75,0.5625 0.08333,0.0625 0.170911,0.119709 0.25,0.1875 0.06711,0.05752 0.119598,0.130915 0.1875,0.1875 0.05771,0.04809 0.125,0.08333 0.1875,0.125 0.125,0.08333 0.238863,0.186469 0.375,0.25 0.211852,0.09886 0.843114,0.286874 1.125,0.3125 0.124487,0.01132 0.25,0 0.375,0 0.208333,0 0.416667,0 0.625,0 0.286349,0 0.492693,0.04042 0.75,-0.0625 C 17.291667,7.708333 17.520833,7.604167 17.75,7.5 17.8125,7.45833 17.870315,7.40859 17.9375,7.375 18.055351,7.31607 18.199515,7.31779 18.3125,7.25 18.38829,7.20453 18.4375,7.125 18.5,7.0625 18.58333,6.97917 18.672394,6.901192 18.75,6.8125 18.976307,6.553863 19.09963,6.300739 19.25,6 19.27083,5.95833 19.28666,5.91376 19.3125,5.875 19.32884,5.85049 19.36568,5.84045 19.375,5.8125 19.38818,5.77297 19.35953,5.72619 19.375,5.6875 19.4029,5.61776 19.46641,5.567185 19.5,5.5 c 0.01863,-0.03727 -0.02946,-0.09554 0,-0.125 0.01473,-0.01473 0.04777,0.01473 0.0625,0 0.01473,-0.01473 -0.0066,-0.04274 0,-0.0625 0.01473,-0.04419 0.03853,-0.08505 0.0625,-0.125 0.05349,-0.08915 0.151783,-0.20535 0.1875,-0.3125 0.0066,-0.01976 0,-0.04167 0,-0.0625 0,-0.02083 -0.01473,-0.04777 0,-0.0625 0.01473,-0.01473 0.05,-0.01667 0.0625,0 0.0559,0.07454 0.07332,0.172478 0.125,0.25 0.115563,0.173344 0.247977,0.33487 0.375,0.5 0.08133,0.105735 0.168101,0.207202 0.25,0.3125 0.41198,0.529688 -0.04252,-0.001 0.6875,0.875 0.03772,0.04527 0.08819,0.07899 0.125,0.125 0.04692,0.05865 0.07993,0.127407 0.125,0.1875 0.01768,0.02357 0.04167,0.04167 0.0625,0.0625 0.04167,0.04167 0.07786,0.08965 0.125,0.125 0.03727,0.02795 0.08624,0.03666 0.125,0.0625 0.02452,0.01634 0.03455,0.05318 0.0625,0.0625 0.03953,0.01318 0.08458,-0.01011 0.125,0 0.04519,0.0113 0.08138,0.04614 0.125,0.0625 0.123372,0.04626 0.247173,0.09304 0.375,0.125 0.122941,0.03073 0.250737,0.03765 0.375,0.0625 0.08423,0.01685 0.164965,0.05035 0.25,0.0625 0.06187,0.0088 0.125,0 0.1875,0 0.1875,0 0.375,0 0.5625,0 0.208333,0 0.416667,0 0.625,0 0.125,0 0.250513,0.01132 0.375,0 C 25.043293,7.6154 25.145833,7.58333 25.25,7.5625 25.354167,7.54167 25.458333,7.52083 25.5625,7.5 c 0.635343,-0.127069 0.05157,0.0031 0.5,-0.125 0.08259,-0.0236 0.169274,-0.03314 0.25,-0.0625 C 26.442737,7.26514 26.838807,7.09211 27,7 c 0.150967,-0.02496 0.201506,-0.176004 0.3125,-0.25 0.07752,-0.05168 0.170992,-0.07562 0.25,-0.125 0.08833,-0.05521 0.163328,-0.129719 0.25,-0.1875 0.03876,-0.02584 0.08773,-0.03455 0.125,-0.0625 0.04714,-0.03535 0.08333,-0.08333 0.125,-0.125 0.04167,-0.04167 0.08333,-0.08333 0.125,-0.125 0.04003,-0.04003 0.211008,-0.191512 0.25,-0.25 C 28.46334,5.83624 28.4709,5.78638 28.5,5.75 28.59203,5.634967 28.708333,5.541667 28.8125,5.4375 28.85417,5.39583 28.953688,5.36916 28.9375,5.3125 28.900853,5.184234 28.770833,5.104167 28.6875,5"
       id="path873"
       inkscape:connector-curvature="0" />
    <path
       style="fill:none;stroke:#0000ff;stroke-width:1px;stroke-linecap:butt;stroke-linejoin:miter;stroke-opacity:1"
       d="M 1.9375,10.5 C 1.875,10.5625 1.7742821,10.602512 1.75,10.6875 c -0.023598,0.08259 0.037817,0.167725 0.0625,0.25 0.094315,0.314382 0.1704634,0.508136 0.3125,0.8125 0.0788,0.168857 0.1728924,0.330363 0.25,0.5 0.027262,0.05998 0.033037,0.128574 0.0625,0.1875 0.033593,0.06719 0.085189,0.123802 0.125,0.1875 0.2384676,0.381548 0.131012,0.267431 0.4375,0.625 0.038348,0.04474 0.083333,0.08333 0.125,0.125 0.041667,0.04167 0.074472,0.09468 0.125,0.125 0.056492,0.03389 0.1285744,0.03304 0.1875,0.0625 0.3921077,0.196054 -0.037316,0.06738 0.4375,0.25 0.2846858,0.109495 0.8166343,0.279461 1.125,0.3125 0.3941255,0.04223 0.7922018,0.03322 1.1875,0.0625 0.1675048,0.01241 0.3321705,0.05579 0.5,0.0625 0.9080877,0.03632 0.9687842,0.03947 1.75,-0.125 0.3591767,-0.07562 0.614308,-0.138474 0.9375,-0.3125 0.132274,-0.07123 0.25,-0.166667 0.375,-0.25 0.0625,-0.04167 0.134385,-0.07188 0.1875,-0.125 0.25093,-0.25093 0.201903,-0.269204 0.375,-0.5 0.08004,-0.106719 0.176004,-0.201506 0.25,-0.3125 0.05168,-0.07752 0.08333,-0.166667 0.125,-0.25 0.02083,-0.04167 0.03455,-0.08773 0.0625,-0.125 0.03535,-0.04714 0.08965,-0.07786 0.125,-0.125 0.02795,-0.03727 0.03455,-0.08773 0.0625,-0.125 0.0525,-0.07 0.135,-0.1175 0.1875,-0.1875 0.06289,-0.08385 0.145954,-0.208634 0.1875,-0.3125 0.02447,-0.06117 0.03803,-0.126331 0.0625,-0.1875 0.0173,-0.04325 0.04777,-0.08081 0.0625,-0.125 0.0066,-0.01976 -0.01473,-0.04777 0,-0.0625 0.01473,-0.01473 0.04777,0.01473 0.0625,0 0.01925,-0.01925 -0.0342,-0.193395 0,-0.125 0.171875,0.34375 -0.09375,0.0625 0.1875,0.5625 0.296931,0.527877 0.425866,0.613366 0.8125,1 0.0625,0.0625 0.11848,0.132284 0.1875,0.1875 0.244022,0.195217 0.5,0.375 0.75,0.5625 0.08333,0.0625 0.170911,0.119709 0.25,0.1875 0.06711,0.05752 0.119598,0.130915 0.1875,0.1875 0.05771,0.04809 0.125,0.08333 0.1875,0.125 0.125,0.08333 0.238863,0.186469 0.375,0.25 0.211852,0.09886 0.843114,0.286874 1.125,0.3125 0.124487,0.01132 0.25,0 0.375,0 0.208333,0 0.416667,0 0.625,0 0.286349,0 0.492693,0.04042 0.75,-0.0625 C 17.541667,14.208333 17.770833,14.104167 18,14 c 0.0625,-0.04167 0.120315,-0.09141 0.1875,-0.125 0.117851,-0.05893 0.262015,-0.05721 0.375,-0.125 0.07579,-0.04547 0.125,-0.125 0.1875,-0.1875 0.08333,-0.08333 0.172394,-0.161308 0.25,-0.25 0.226307,-0.258637 0.34963,-0.511761 0.5,-0.8125 0.02083,-0.04167 0.03666,-0.08624 0.0625,-0.125 0.01634,-0.02451 0.05318,-0.03455 0.0625,-0.0625 0.01318,-0.03953 -0.01547,-0.08631 0,-0.125 0.0279,-0.06974 0.09141,-0.120315 0.125,-0.1875 0.01863,-0.03727 -0.02946,-0.09554 0,-0.125 0.01473,-0.01473 0.04777,0.01473 0.0625,0 0.01473,-0.01473 -0.0066,-0.04274 0,-0.0625 0.01473,-0.04419 0.03853,-0.08505 0.0625,-0.125 0.05349,-0.08915 0.151783,-0.20535 0.1875,-0.3125 0.0066,-0.01976 0,-0.04167 0,-0.0625 0,-0.02083 -0.01473,-0.04777 0,-0.0625 0.01473,-0.01473 0.05,-0.01667 0.0625,0 0.0559,0.07454 0.07332,0.172478 0.125,0.25 0.115563,0.173344 0.247977,0.33487 0.375,0.5 0.08133,0.105735 0.168101,0.207202 0.25,0.3125 0.41198,0.529688 -0.04252,-10e-4 0.6875,0.875 0.03772,0.04527 0.08819,0.07899 0.125,0.125 0.04692,0.05865 0.07993,0.127407 0.125,0.1875 0.01768,0.02357 0.04167,0.04167 0.0625,0.0625 0.04167,0.04167 0.07786,0.08965 0.125,0.125 0.03727,0.02795 0.08624,0.03666 0.125,0.0625 0.02452,0.01634 0.03455,0.05318 0.0625,0.0625 0.03953,0.01318 0.08458,-0.01011 0.125,0 0.04519,0.0113 0.08138,0.04614 0.125,0.0625 0.123372,0.04626 0.247173,0.09304 0.375,0.125 0.122941,0.03073 0.250737,0.03765 0.375,0.0625 0.08423,0.01685 0.164965,0.05035 0.25,0.0625 0.06187,0.0088 0.125,0 0.1875,0 0.1875,0 0.375,0 0.5625,0 0.208333,0 0.416667,0 0.625,0 0.125,0 0.250513,0.01132 0.375,0 0.105793,-0.0096 0.208333,-0.04167 0.3125,-0.0625 0.104167,-0.02083 0.208333,-0.04167 0.3125,-0.0625 0.635343,-0.127069 0.05157,0.0031 0.5,-0.125 0.08259,-0.0236 0.169274,-0.03314 0.25,-0.0625 0.130237,-0.04736 0.526307,-0.22039 0.6875,-0.3125 0.150967,-0.02496 0.201506,-0.176004 0.3125,-0.25 0.07752,-0.05168 0.170992,-0.07562 0.25,-0.125 0.08833,-0.05521 0.163328,-0.129719 0.25,-0.1875 0.03876,-0.02584 0.08773,-0.03455 0.125,-0.0625 0.04714,-0.03535 0.08333,-0.08333 0.125,-0.125 0.04167,-0.04167 0.08333,-0.08333 0.125,-0.125 0.04003,-0.04003 0.211008,-0.191512 0.25,-0.25 0.02584,-0.03876 0.0334,-0.08862 0.0625,-0.125 0.09203,-0.115033 0.208333,-0.208333 0.3125,-0.3125 0.04167,-0.04167 0.141188,-0.06834 0.125,-0.125 -0.03665,-0.128266 -0.166667,-0.208333 -0.25,-0.3125"
       id="path873-6"
       inkscape:connector-curvature="0" />
    <path
       style="fill:none;stroke:#0000ff;stroke-width:1px;stroke-linecap:butt;stroke-linejoin:miter;stroke-opacity:1"
       d="M 1.9375,16.5 C 1.875,16.5625 1.7742821,16.602512 1.75,16.6875 c -0.023598,0.08259 0.037817,0.167725 0.0625,0.25 0.094315,0.314382 0.1704634,0.508136 0.3125,0.8125 0.0788,0.168857 0.1728924,0.330363 0.25,0.5 0.027262,0.05998 0.033037,0.128574 0.0625,0.1875 0.033593,0.06719 0.085189,0.123802 0.125,0.1875 0.2384676,0.381548 0.131012,0.267431 0.4375,0.625 0.038348,0.04474 0.083333,0.08333 0.125,0.125 0.041667,0.04167 0.074472,0.09468 0.125,0.125 0.056492,0.03389 0.1285744,0.03304 0.1875,0.0625 0.3921077,0.196054 -0.037316,0.06738 0.4375,0.25 0.2846858,0.109495 0.8166343,0.279461 1.125,0.3125 0.3941255,0.04223 0.7922018,0.03322 1.1875,0.0625 0.1675048,0.01241 0.3321705,0.05579 0.5,0.0625 0.9080877,0.03632 0.9687842,0.03947 1.75,-0.125 0.3591767,-0.07562 0.614308,-0.138474 0.9375,-0.3125 0.132274,-0.07123 0.25,-0.166667 0.375,-0.25 0.0625,-0.04167 0.134385,-0.07188 0.1875,-0.125 0.25093,-0.25093 0.201903,-0.269204 0.375,-0.5 0.08004,-0.106719 0.176004,-0.201506 0.25,-0.3125 0.05168,-0.07752 0.08333,-0.166667 0.125,-0.25 0.02083,-0.04167 0.03455,-0.08773 0.0625,-0.125 0.03535,-0.04714 0.08965,-0.07786 0.125,-0.125 0.02795,-0.03727 0.03455,-0.08773 0.0625,-0.125 0.0525,-0.07 0.135,-0.1175 0.1875,-0.1875 0.06289,-0.08385 0.145954,-0.208634 0.1875,-0.3125 0.02447,-0.06117 0.03803,-0.126331 0.0625,-0.1875 0.0173,-0.04325 0.04777,-0.08081 0.0625,-0.125 0.0066,-0.01976 -0.01473,-0.04777 0,-0.0625 0.01473,-0.01473 0.04777,0.01473 0.0625,0 0.01925,-0.01925 -0.0342,-0.193395 0,-0.125 0.171875,0.34375 -0.09375,0.0625 0.1875,0.5625 0.296931,0.527877 0.425866,0.613366 0.8125,1 0.0625,0.0625 0.11848,0.132284 0.1875,0.1875 0.244022,0.195217 0.5,0.375 0.75,0.5625 0.08333,0.0625 0.170911,0.119709 0.25,0.1875 0.06711,0.05752 0.119598,0.130915 0.1875,0.1875 0.05771,0.04809 0.125,0.08333 0.1875,0.125 0.125,0.08333 0.238863,0.186469 0.375,0.25 0.211852,0.09886 0.843114,0.286874 1.125,0.3125 0.124487,0.01132 0.25,0 0.375,0 0.208333,0 0.416667,0 0.625,0 0.286349,0 0.492693,0.04042 0.75,-0.0625 C 17.541667,20.208333 17.770833,20.104167 18,20 c 0.0625,-0.04167 0.120315,-0.09141 0.1875,-0.125 0.117851,-0.05893 0.262015,-0.05721 0.375,-0.125 0.07579,-0.04547 0.125,-0.125 0.1875,-0.1875 0.08333,-0.08333 0.172394,-0.161308 0.25,-0.25 0.226307,-0.258637 0.34963,-0.511761 0.5,-0.8125 0.02083,-0.04167 0.03666,-0.08624 0.0625,-0.125 0.01634,-0.02451 0.05318,-0.03455 0.0625,-0.0625 0.01318,-0.03953 -0.01547,-0.08631 0,-0.125 0.0279,-0.06974 0.09141,-0.120315 0.125,-0.1875 0.01863,-0.03727 -0.02946,-0.09554 0,-0.125 0.01473,-0.01473 0.04777,0.01473 0.0625,0 0.01473,-0.01473 -0.0066,-0.04274 0,-0.0625 0.01473,-0.04419 0.03853,-0.08505 0.0625,-0.125 0.05349,-0.08915 0.151783,-0.20535 0.1875,-0.3125 0.0066,-0.01976 0,-0.04167 0,-0.0625 0,-0.02083 -0.01473,-0.04777 0,-0.0625 0.01473,-0.01473 0.05,-0.01667 0.0625,0 0.0559,0.07454 0.07332,0.172478 0.125,0.25 0.115563,0.173344 0.247977,0.33487 0.375,0.5 0.08133,0.105735 0.168101,0.207202 0.25,0.3125 0.41198,0.529688 -0.04252,-0.001 0.6875,0.875 0.03772,0.04527 0.08819,0.07899 0.125,0.125 0.04692,0.05865 0.07993,0.127407 0.125,0.1875 0.01768,0.02357 0.04167,0.04167 0.0625,0.0625 0.04167,0.04167 0.07786,0.08965 0.125,0.125 0.03727,0.02795 0.08624,0.03666 0.125,0.0625 0.02452,0.01634 0.03455,0.05318 0.0625,0.0625 0.03953,0.01318 0.08458,-0.01011 0.125,0 0.04519,0.0113 0.08138,0.04614 0.125,0.0625 0.123372,0.04626 0.247173,0.09304 0.375,0.125 0.122941,0.03073 0.250737,0.03765 0.375,0.0625 0.08423,0.01685 0.164965,0.05035 0.25,0.0625 0.06187,0.0088 0.125,0 0.1875,0 0.1875,0 0.375,0 0.5625,0 0.208333,0 0.416667,0 0.625,0 0.125,0 0.250513,0.01132 0.375,0 0.105793,-0.0096 0.208333,-0.04167 0.3125,-0.0625 0.104167,-0.02083 0.208333,-0.04167 0.3125,-0.0625 0.635343,-0.127069 0.05157,0.0031 0.5,-0.125 0.08259,-0.0236 0.169274,-0.03314 0.25,-0.0625 0.130237,-0.04736 0.526307,-0.22039 0.6875,-0.3125 0.150967,-0.02496 0.201506,-0.176004 0.3125,-0.25 0.07752,-0.05168 0.170992,-0.07562 0.25,-0.125 0.08833,-0.05521 0.163328,-0.129719 0.25,-0.1875 0.03876,-0.02584 0.08773,-0.03455 0.125,-0.0625 0.04714,-0.03535 0.08333,-0.08333 0.125,-0.125 0.04167,-0.04167 0.08333,-0.08333 0.125,-0.125 0.04003,-0.04003 0.211008,-0.191512 0.25,-0.25 0.02584,-0.03876 0.0334,-0.08862 0.0625,-0.125 0.09203,-0.115033 0.208333,-0.208333 0.3125,-0.3125 0.04167,-0.04167 0.141188,-0.06834 0.125,-0.125 -0.03665,-0.128266 -0.166667,-0.208333 -0.25,-0.3125"
       id="path873-7"
       inkscape:connector-curvature="0" />
    <path
       style="fill:none;stroke:#0000ff;stroke-width:1px;stroke-linecap:butt;stroke-linejoin:miter;stroke-opacity:1"
       d="M 1.9375,22.5 C 1.875,22.5625 1.7742821,22.602512 1.75,22.6875 c -0.023598,0.08259 0.037817,0.167725 0.0625,0.25 0.094315,0.314382 0.1704634,0.508136 0.3125,0.8125 0.0788,0.168857 0.1728924,0.330363 0.25,0.5 0.027262,0.05998 0.033037,0.128574 0.0625,0.1875 0.033593,0.06719 0.085189,0.123802 0.125,0.1875 0.2384676,0.381548 0.131012,0.267431 0.4375,0.625 0.038348,0.04474 0.083333,0.08333 0.125,0.125 0.041667,0.04167 0.074472,0.09468 0.125,0.125 0.056492,0.03389 0.1285744,0.03304 0.1875,0.0625 0.3921077,0.196054 -0.037316,0.06738 0.4375,0.25 0.284686,0.109495 0.816634,0.279461 1.125,0.3125 0.394125,0.04223 0.792202,0.03322 1.1875,0.0625 0.167505,0.01241 0.33217,0.05579 0.5,0.0625 0.908088,0.03632 0.968784,0.03947 1.75,-0.125 0.359177,-0.07562 0.614308,-0.138474 0.9375,-0.3125 0.132274,-0.07123 0.25,-0.166667 0.375,-0.25 0.0625,-0.04167 0.134385,-0.07188 0.1875,-0.125 0.25093,-0.25093 0.201903,-0.269204 0.375,-0.5 0.08004,-0.106719 0.176004,-0.201506 0.25,-0.3125 0.05168,-0.07752 0.08333,-0.166667 0.125,-0.25 0.02083,-0.04167 0.03455,-0.08773 0.0625,-0.125 0.03535,-0.04714 0.08965,-0.07786 0.125,-0.125 0.02795,-0.03727 0.03455,-0.08773 0.0625,-0.125 0.0525,-0.07 0.135,-0.1175 0.1875,-0.1875 0.06289,-0.08385 0.145954,-0.208634 0.1875,-0.3125 0.02447,-0.06117 0.03803,-0.126331 0.0625,-0.1875 0.0173,-0.04325 0.04777,-0.08081 0.0625,-0.125 0.0066,-0.01976 -0.01473,-0.04777 0,-0.0625 0.01473,-0.01473 0.04777,0.01473 0.0625,0 0.01925,-0.01925 -0.0342,-0.193395 0,-0.125 0.171875,0.34375 -0.09375,0.0625 0.1875,0.5625 0.296931,0.527877 0.425866,0.613366 0.8125,1 0.0625,0.0625 0.11848,0.132284 0.1875,0.1875 0.244022,0.195217 0.5,0.375 0.75,0.5625 0.08333,0.0625 0.170911,0.119709 0.25,0.1875 0.06711,0.05752 0.119598,0.130915 0.1875,0.1875 0.05771,0.04809 0.125,0.08333 0.1875,0.125 0.125,0.08333 0.238863,0.186469 0.375,0.25 0.211852,0.09886 0.843114,0.286874 1.125,0.3125 0.124487,0.01132 0.25,0 0.375,0 0.208333,0 0.416667,0 0.625,0 0.286349,0 0.492693,0.04042 0.75,-0.0625 C 17.541667,26.208333 17.770833,26.104167 18,26 c 0.0625,-0.04167 0.120315,-0.09141 0.1875,-0.125 0.117851,-0.05893 0.262015,-0.05721 0.375,-0.125 0.07579,-0.04547 0.125,-0.125 0.1875,-0.1875 0.08333,-0.08333 0.172394,-0.161308 0.25,-0.25 0.226307,-0.258637 0.34963,-0.511761 0.5,-0.8125 0.02083,-0.04167 0.03666,-0.08624 0.0625,-0.125 0.01634,-0.02451 0.05318,-0.03455 0.0625,-0.0625 0.01318,-0.03953 -0.01547,-0.08631 0,-0.125 0.0279,-0.06974 0.09141,-0.120315 0.125,-0.1875 0.01863,-0.03727 -0.02946,-0.09554 0,-0.125 0.01473,-0.01473 0.04777,0.01473 0.0625,0 0.01473,-0.01473 -0.0066,-0.04274 0,-0.0625 0.01473,-0.04419 0.03853,-0.08505 0.0625,-0.125 0.05349,-0.08915 0.151783,-0.20535 0.1875,-0.3125 0.0066,-0.01976 0,-0.04167 0,-0.0625 0,-0.02083 -0.01473,-0.04777 0,-0.0625 0.01473,-0.01473 0.05,-0.01667 0.0625,0 0.0559,0.07454 0.07332,0.172478 0.125,0.25 0.115563,0.173344 0.247977,0.33487 0.375,0.5 0.08133,0.105735 0.168101,0.207202 0.25,0.3125 0.41198,0.529688 -0.04252,-0.001 0.6875,0.875 0.03772,0.04527 0.08819,0.07899 0.125,0.125 0.04692,0.05865 0.07993,0.127407 0.125,0.1875 0.01768,0.02357 0.04167,0.04167 0.0625,0.0625 0.04167,0.04167 0.07786,0.08965 0.125,0.125 0.03727,0.02795 0.08624,0.03666 0.125,0.0625 0.02452,0.01634 0.03455,0.05318 0.0625,0.0625 0.03953,0.01318 0.08458,-0.01011 0.125,0 0.04519,0.0113 0.08138,0.04614 0.125,0.0625 0.123372,0.04626 0.247173,0.09304 0.375,0.125 0.122941,0.03073 0.250737,0.03765 0.375,0.0625 0.08423,0.01685 0.164965,0.05035 0.25,0.0625 0.06187,0.0088 0.125,0 0.1875,0 0.1875,0 0.375,0 0.5625,0 0.208333,0 0.416667,0 0.625,0 0.125,0 0.250513,0.01132 0.375,0 0.105793,-0.0096 0.208333,-0.04167 0.3125,-0.0625 0.104167,-0.02083 0.208333,-0.04167 0.3125,-0.0625 0.635343,-0.127069 0.05157,0.0031 0.5,-0.125 0.08259,-0.0236 0.169274,-0.03314 0.25,-0.0625 0.130237,-0.04736 0.526307,-0.22039 0.6875,-0.3125 0.150967,-0.02496 0.201506,-0.176004 0.3125,-0.25 0.07752,-0.05168 0.170992,-0.07562 0.25,-0.125 0.08833,-0.05521 0.163328,-0.129719 0.25,-0.1875 0.03876,-0.02584 0.08773,-0.03455 0.125,-0.0625 0.04714,-0.03535 0.08333,-0.08333 0.125,-0.125 0.04167,-0.04167 0.08333,-0.08333 0.125,-0.125 0.04003,-0.04003 0.211008,-0.191512 0.25,-0.25 0.02584,-0.03876 0.0334,-0.08862 0.0625,-0.125 0.09203,-0.115033 0.208333,-0.208333 0.3125,-0.3125 0.04167,-0.04167 0.141188,-0.06834 0.125,-0.125 -0.03665,-0.128266 -0.166667,-0.208333 -0.25,-0.3125"
       id="path873-5"
       inkscape:connector-curvature="0" />
  </g>
</svg>
